<svg width="304" height="156" viewBox="0 0 304 156" fill="none" xmlns="http://www.w3.org/2000/svg">
<path fill-rule="evenodd" clip-rule="evenodd" d="M14.5889 14.6309L0.125 0.0078125H43.5179V63.3746H101.375L101.375 14.6309L86.9107 0.0078125H289.411L303.875 14.6309L303.875 77.9977L289.411 92.6204L202.625 92.6208L217.089 107.244L217.089 141.364L202.625 155.987L101.375 155.988V92.6208H29.0536L43.5175 107.244L43.5179 155.988H14.5893L14.5889 14.6309ZM202.625 29.254L217.089 43.8771L217.089 63.3746H274.946V29.254H202.625ZM130.304 43.8771L115.839 29.254H188.161V63.3746H130.304V43.8771ZM130.304 126.741L130.303 107.244L115.839 92.6208H188.161V126.741H130.304Z" fill="white"/>
</svg>
