<svg width="304" height="156" viewBox="0 0 304 156" fill="none" xmlns="http://www.w3.org/2000/svg">
<path fill-rule="evenodd" clip-rule="evenodd" d="M14.4639 14.6231L0 0H43.3929V63.3668H101.25L101.25 14.6231L86.7857 0H289.286L303.75 14.6231L303.75 77.9899L289.286 92.6126L202.5 92.613L216.964 107.236L216.964 141.357L202.5 155.979L101.25 155.98V92.613H28.9286L43.3925 107.236L43.3929 155.98H14.4643L14.4639 14.6231ZM202.5 29.2462L216.964 43.8693L216.964 63.3668H274.821V29.2462H202.5ZM130.179 43.8693L115.714 29.2462H188.036V63.3668H130.179V43.8693ZM130.179 126.734L130.178 107.236L115.714 92.613H188.036V126.734H130.179Z" fill="black"/>
</svg>
